<svg xmlns="http://www.w3.org/2000/svg" viewBox="0 0 500 500"><g id="freepik--background-simple--inject-11"><path d="M283.59,19.08S200.41,8.5,134.19,68.75,48.7,224.09,31.06,300.74s16.69,143.2,81.57,162.79S206.45,427,287.08,407s105-13.21,162.29-73.76S495.2,161.77,424.59,93.29,283.59,19.08,283.59,19.08Z" style="fill:#1B3A57"></path><path d="M283.59,19.08S200.41,8.5,134.19,68.75,48.7,224.09,31.06,300.74s16.69,143.2,81.57,162.79S206.45,427,287.08,407s105-13.21,162.29-73.76S495.2,161.77,424.59,93.29,283.59,19.08,283.59,19.08Z" style="fill:#fff;opacity:0.7000000000000001"></path></g><g id="freepik--Landscape--inject-11"><line x1="25.22" y1="207.28" x2="480" y2="207.28" style="fill:none;stroke:#263238;stroke-linecap:round;stroke-linejoin:round"></line><path d="M48.75,207.31s64.24-40.92,73.63-40.92,69.84,40.48,69.84,40.48S317.8,159.35,329,159.94s41.08,15.84,42.84,16.43,26.41-6.45,34-3.52,60,34.48,60,34.48Z" style="fill:none;stroke:#263238;stroke-linecap:round;stroke-linejoin:round"></path><path d="M172.8,207.3C166,202.72,153.44,193.88,152,191c-2-4-8,0-15-2s-14.62-22.61-14.62-22.61c-9.39,0-73.63,40.92-73.63,40.92Z" style="fill:none;stroke:#263238;stroke-miterlimit:10"></path><path d="M335.41,181.29a100.19,100.19,0,0,1-11.66-10.41l3.46-10.8c-18.67,2.78-135,46.79-135,46.79l-.36-.24-1.08.41,275,.29-.25-.15c-8.25-1.63-20-4-21-4.23-1.67-.41-16.25-2.08-16.25-2.08s-14.57-4.58-17.49-6.25-13.33-12.08-12.08-14.16,5.41-7.91,5.41-7.91l-1.06-.29c-9.57-1-29.69,4.64-31.28,4.11l-17.22,5.34S342.91,187.12,335.41,181.29Z" style="fill:none;stroke:#263238;stroke-miterlimit:10"></path><polyline points="486.66 349.63 255.86 207.28 13.93 356.35" style="fill:none;stroke:#263238;stroke-linecap:round;stroke-linejoin:round"></polyline><line x1="155.43" y1="253.17" x2="49.32" y2="313.68" style="fill:none;stroke:#263238;stroke-linecap:round;stroke-linejoin:round"></line><line x1="76.31" y1="289.48" x2="22.32" y2="318.33" style="fill:none;stroke:#263238;stroke-linecap:round;stroke-linejoin:round"></line><line x1="345.33" y1="250.38" x2="397.45" y2="279.24" style="fill:none;stroke:#263238;stroke-linecap:round;stroke-linejoin:round"></line><line x1="393.73" y1="269.93" x2="452.37" y2="300.65" style="fill:none;stroke:#263238;stroke-linecap:round;stroke-linejoin:round"></line></g><g id="freepik--Arrows--inject-11"><polygon points="419.31 466 483.3 466 400.78 388.63 411.83 388.63 353.04 356.84 351.48 388.63 362.54 388.63 419.31 466" style="fill:#1B3A57"></polygon><polygon points="15.2 466 79.19 466 135.97 388.63 147.03 388.63 145.46 356.84 86.67 388.63 97.72 388.63 15.2 466" style="fill:#1B3A57"></polygon><polygon points="192.15 466 302.35 466 276.52 355.8 293.44 355.8 247.25 317 201.06 355.8 217.98 355.8 192.15 466" style="fill:#1B3A57"></polygon></g><g id="freepik--Clouds--inject-11"><path d="M441,121.21c-3.86-2.1-5.61-.35-7-2.1s3.85-6.31-6.66-10.86c0,0-.7-9.81-15.06-10.16s-10.51,9.81-14.36,12.26-4.9-1.4-8.76,1.05-2.1,7.36-5.25,8.06-7.36-3.15-11.21-.7-3.85,4.55-5.6,4.55-5.26-1.4-7.36,0-4.55,3.15-4.55,3.15h88.62S444.86,123.31,441,121.21Z" style="fill:none;stroke:#263238;stroke-linecap:round;stroke-linejoin:round"></path><path d="M388.58,119.77a11.58,11.58,0,0,1-1.56.74" style="fill:none;stroke:#263238;stroke-linecap:round;stroke-linejoin:round"></path><path d="M407.54,103.41a6,6,0,0,0-3.42,4.27c-.64,3.21-2.14,5.35-3.85,5.56s-8.12-.43-9.19,1.93a9.26,9.26,0,0,0-.6,2.14" style="fill:none;stroke:#263238;stroke-linecap:round;stroke-linejoin:round"></path><line x1="379.71" y1="119" x2="385.86" y2="119" style="fill:none;stroke:#263238;stroke-linecap:round;stroke-linejoin:round"></line><path d="M434,119h41.42s3.33-10-8.88-16.65-17.75-1.11-22.19-6.66,12.2-20-21.09-34.4c0,0-2.22-31.07-47.72-32.18S342.25,60.18,330,68s-15.54-4.44-27.75,3.33-6.66,23.31-16.64,25.52-23.31-10-35.52-2.21S237.92,109,232.38,109s-16.65-4.44-23.31,0-14.43,10-14.43,10H372.7" style="fill:none;stroke:#263238;stroke-linecap:round;stroke-linejoin:round"></path><path d="M300.44,97.79a37.74,37.74,0,0,1-4.95,2.34" style="fill:none;stroke:#263238;stroke-linecap:round;stroke-linejoin:round"></path><path d="M306.46,90a30,30,0,0,1,1.9-6.81c3.39-7.45,23.7-5.42,29.12-6.09s10.16-7.45,12.19-17.61A19,19,0,0,1,360.51,46" style="fill:none;stroke:#263238;stroke-linecap:round;stroke-linejoin:round"></path><path d="M105,160.08c-2.45-1.34-3.57-.22-4.46-1.34s2.45-4-4.25-6.92c0,0-.44-6.26-9.6-6.48s-6.7,6.25-9.16,7.82-3.13-.9-5.58.67-1.34,4.69-3.35,5.13-4.69-2-7.15-.44-2.46,2.9-3.57,2.9-3.35-.89-4.69,0-2.91,2-2.91,2h56.51S107.43,161.42,105,160.08Z" style="fill:none;stroke:#263238;stroke-linecap:round;stroke-linejoin:round"></path><path d="M71.55,159.16a7.32,7.32,0,0,1-1,.47" style="fill:none;stroke:#263238;stroke-linecap:round;stroke-linejoin:round"></path><path d="M83.63,148.73a3.81,3.81,0,0,0-2.18,2.73c-.41,2-1.36,3.4-2.45,3.54s-5.18-.27-5.86,1.23a6,6,0,0,0-.38,1.37" style="fill:none;stroke:#263238;stroke-linecap:round;stroke-linejoin:round"></path></g><g id="freepik--Character--inject-11"><polygon points="234.71 106.13 237.25 120.5 256.01 119.99 259.22 105.79 234.71 106.13" style="fill:#fff;stroke:#263238;stroke-linecap:round;stroke-linejoin:round"></polygon><path d="M230.65,96s-3-1.69-3,3,4.56,7.78,5.92,7.78,1.52-1.19,1.18-2.71S230.65,96,230.65,96Z" style="fill:#fff;stroke:#263238;stroke-linecap:round;stroke-linejoin:round"></path><path d="M260.9,96s2.88-2,3.3,2.75-3.84,8.16-5.19,8.28-1.62-1-1.42-2.59S260.9,96,260.9,96Z" style="fill:#fff;stroke:#263238;stroke-linecap:round;stroke-linejoin:round"></path><path d="M233.44,77.45s-4.7,6.17-4.7,11.46S232,101.55,234,105.67s4.7,8.81,6.17,9.11,11.76.29,13.52-.89,4.7-4.11,5.88-10.28,2.94-15.29,2.94-15.29,6.47-.88,7.35-5-5-6.47-6.76-9.11,3.23-5-1.77-8.23-9.11-.88-12.63.29-3.24-3.82-7.35-1.76-3.82,5.29-3.82,5.29-2.94-.3-2.94-1.77-2.94-1.47-3.82,3.24S233.44,77.45,233.44,77.45Z" style="fill:#263238;stroke:#263238;stroke-linecap:round;stroke-linejoin:round"></path><path d="M259.05,117s-13,0-18.59.5-7.61,6.93-7.61,6.93a172.41,172.41,0,0,1,17.75-2c7.77-.34,12.67-.17,12.67-.17Z" style="fill:#fff;stroke:#263238;stroke-linecap:round;stroke-linejoin:round"></path><path d="M296.07,129.23s16.73,66.08,16.45,68.31-30.67,12-30.67,12l-3.07-10.59,13.11-9.48-6.41-17.85S293.56,133.41,296.07,129.23Z" style="fill:#1B3A57;stroke:#263238;stroke-linecap:round;stroke-linejoin:round"></path><path d="M311,196.88a147.83,147.83,0,0,0-3.7-16.51l-20.67-14c-.7,3.2.07,4.51.07,4.51l7.53,20.87-15.43,7.21,3.15,9S310.7,199.11,311,196.88Z" style="fill:#263238;stroke:#263238;stroke-linecap:round;stroke-linejoin:round"></path><path d="M288.9,156l19.42,22.55c-.68-2.83-1.41-5.83-2.16-8.9L289,155.62Z" style="fill:#263238;stroke:#263238;stroke-linecap:round;stroke-linejoin:round"></path><path d="M180.39,243.14s-4.29,13.78-4.66,16.57-1.86,4.1-.56,6.52,7.45,5,8.75,5.59,3.91-1.68,3.91-1.68,1.49,1.12,2.61-1.3,1.49-6.89,1.49-8.94-3.72-7.45-4.1-9.12a36,36,0,0,1-.55-4.1Z" style="fill:#fff;stroke:#263238;stroke-linecap:round;stroke-linejoin:round"></path><path d="M187.09,253.38s.19,6-.19,6.71-6.33,4.09-6.33,4.09" style="fill:none;stroke:#263238;stroke-linecap:round;stroke-linejoin:round"></path><line x1="182.25" y1="263.25" x2="184.85" y2="267.16" style="fill:none;stroke:#263238;stroke-linecap:round;stroke-linejoin:round"></line><path d="M186.9,260.09s2-.38,2.24,1.3-.75,7.82-1.31,8.75" style="fill:none;stroke:#263238;stroke-linecap:round;stroke-linejoin:round"></path><path d="M227.48,398s.84,9.76,2.51,11.15,6.69,2.79,9.48,2a15.41,15.41,0,0,0,5-2.79l.56-11.43S233.62,400.52,227.48,398Z" style="fill:#263238;stroke:#263238;stroke-linecap:round;stroke-linejoin:round"></path><path d="M214.66,250.8s5,43.77,5.29,51.58-2.78,23.7-1.67,32.06,5,34,5,34l3.35,18.4s-2.79,3.62-2,6.13l2,5.86s5.29,3.34,9.48,3.62,7.8-2,8.36-3.06,1.39-12.55,1.39-15.34-1.67-10-1.95-15.61,1.95-30.12,1.95-37.92.84-30.39,1.12-31.23,1.67-37.64,1.67-37.64l.56-5.58Z" style="fill:#263238;stroke:#263238;stroke-linecap:round;stroke-linejoin:round"></path><path d="M247,380.45s-4.74,3.9-4.74,7.52a18.14,18.14,0,0,0,1.39,6.7l2.23,1.11s-.83,2.23-1.95,6.69,2.51,17,3.07,18.13,5.85,1.39,5.85,1.39a27.37,27.37,0,0,0,4.74-8.36c1.4-4.47,1.4-15.34,1.4-18.41a40.69,40.69,0,0,1,.83-7S254.25,376.26,247,380.45Z" style="fill:#263238;stroke:#263238;stroke-linecap:round;stroke-linejoin:round"></path><path d="M250.07,385.19c-3.91-3.07-7,.83-7,.83l-.55.33a5.13,5.13,0,0,0-.29,1.62,18.14,18.14,0,0,0,1.39,6.7l2.23,1.11s-.83,2.23-1.95,6.69,2.51,17,3.07,18.13,5.85,1.39,5.85,1.39a29.29,29.29,0,0,0,3.5-5.35,42.54,42.54,0,0,0-.71-16.4C254,393.83,254,388.25,250.07,385.19Z" style="fill:#636363;stroke:#263238;stroke-linecap:round;stroke-linejoin:round"></path><path d="M247.84,256.37l12,59.11s-7,19.24-7.52,27.33-4.19,30.67-4.46,32.9-.84,4.74-.84,4.74,5.58-.56,8.36,2.51,5.86,10.31,5.86,10.31,8.08-22,10.87-28.16,11.71-30.39,12-38.75,2.79-53.54,2.79-59.67V252.75S250.62,256.65,247.84,256.37Z" style="fill:#1B3A57;stroke:#263238;stroke-linecap:round;stroke-linejoin:round"></path><path d="M279.9,320.78c-4.18-5.58-17.84-5.58-17.84-5.58a46.42,46.42,0,0,1,15.05-1.67" style="fill:none;stroke:#263238;stroke-linecap:round;stroke-linejoin:round"></path><path d="M247.84,256.37,252,276.83c3-2.57,18.68-15.49,34.88-20.56v-3.52S250.62,256.65,247.84,256.37Z" style="fill:#263238;stroke:#263238;stroke-linecap:round;stroke-linejoin:round"></path><rect x="180.42" y="262.58" width="3.72" height="18.25" style="fill:#263238;stroke:#263238;stroke-linecap:round;stroke-linejoin:round"></rect><rect x="175.17" y="278.33" width="14.22" height="58.55" style="fill:#263238;stroke:#263238;stroke-linecap:round;stroke-linejoin:round"></rect><path d="M232.85,124.38l-1,.63c-2.51,1.49-8.68,5.17-9.35,5.62-.83.55-21.47,7.52-21.47,10.31s-5.57,36.81-5.57,36.81-10,20.91-11.43,25.93-5.86,41.82-5.86,41.82l12,6.13s11.43-26.21,15.89-38.75,8.65-31.51,8.65-31.51l3.06,19.52-13.94,48.23s20.36,8.37,33.46,9.48,32.34-.55,38.76-2,20.35-3.34,20.35-3.34-4.46-17-7.25-25.38-5.58-27.6-5.58-27.6l-.27-1.39,12.82-69.71-29-4.46-3.8-2.58S241,121.49,232.85,124.38Z" style="fill:#1B3A57;stroke:#263238;stroke-linecap:round;stroke-linejoin:round"></path><polygon points="214.47 179.43 207.69 156.56 212.88 188.84 214.47 179.43" style="fill:#263238;stroke:#263238;stroke-linecap:round;stroke-linejoin:round"></polygon><path d="M244.9,154.57c.69.79,1.3,1.47,1.82,2" style="fill:none;stroke:#263238;stroke-linecap:round;stroke-linejoin:round"></path><path d="M229.43,134.25s7.58,10.61,13.18,17.56" style="fill:none;stroke:#263238;stroke-linecap:round;stroke-linejoin:round"></path><path d="M227.2,135.65s7.53,10.59,10.6,15.33" style="fill:none;stroke:#263238;stroke-linecap:round;stroke-linejoin:round"></path><path d="M282,203.17s-11.11,23.5-15.39,29.49" style="fill:none;stroke:#263238;stroke-linecap:round;stroke-linejoin:round"></path><path d="M268.93,237.75c-.9,1.79-1.81,3.53-2.71,5.16" style="fill:none;stroke:#263238;stroke-linecap:round;stroke-linejoin:round"></path><path d="M280.32,212.14s-4.16,10.51-9.14,21" style="fill:none;stroke:#263238;stroke-linecap:round;stroke-linejoin:round"></path><path d="M233.94,225.19c.65.81,1.29,1.59,1.93,2.34" style="fill:none;stroke:#263238;stroke-linecap:round;stroke-linejoin:round"></path><path d="M220.06,202.31c-.72,1.07,5.44,11.7,12,20.41" style="fill:none;stroke:#263238;stroke-linecap:round;stroke-linejoin:round"></path><path d="M220.91,209.15s6,13.25,9,17.95" style="fill:none;stroke:#263238;stroke-linecap:round;stroke-linejoin:round"></path></g><g id="freepik--Graphics--inject-11"><circle cx="429.5" cy="153.5" r="3.5" style="fill:none;stroke:#263238;stroke-linecap:round;stroke-linejoin:round"></circle><circle cx="134.5" cy="329" r="3.5" style="fill:none;stroke:#263238;stroke-linecap:round;stroke-linejoin:round"></circle><circle cx="52" cy="236.5" r="3.5" style="fill:none;stroke:#263238;stroke-linecap:round;stroke-linejoin:round"></circle><circle cx="134" cy="133" r="4" style="fill:none;stroke:#263238;stroke-linecap:round;stroke-linejoin:round"></circle><circle cx="182.5" cy="58.5" r="3.5" style="fill:none;stroke:#263238;stroke-linecap:round;stroke-linejoin:round"></circle><polygon points="104.72 52.81 112.38 59.42 116.17 59.42 104.72 49.53 93.28 59.42 97.07 59.42 104.72 52.81" style="fill:none;stroke:#263238;stroke-linecap:round;stroke-linejoin:round"></polygon><polygon points="104.72 60.35 112.38 66.97 116.17 66.97 104.72 57.08 93.28 66.97 97.07 66.97 104.72 60.35" style="fill:none;stroke:#263238;stroke-linecap:round;stroke-linejoin:round"></polygon><polygon points="445.61 232.29 450.56 236.56 453 236.56 445.61 230.18 438.23 236.56 440.67 236.56 445.61 232.29" style="fill:none;stroke:#263238;stroke-linecap:round;stroke-linejoin:round"></polygon><polygon points="445.61 237.17 450.56 241.44 453 241.44 445.61 235.05 438.23 241.44 440.67 241.44 445.61 237.17" style="fill:none;stroke:#263238;stroke-linecap:round;stroke-linejoin:round"></polygon><polygon points="377 143.39 384.65 150.01 388.44 150.01 377 140.12 365.56 150.01 369.35 150.01 377 143.39" style="fill:none;stroke:#263238;stroke-linecap:round;stroke-linejoin:round"></polygon><polygon points="377 150.94 384.65 157.55 388.44 157.55 377 147.67 365.56 157.55 369.35 157.55 377 150.94" style="fill:none;stroke:#263238;stroke-linecap:round;stroke-linejoin:round"></polygon><polygon points="431 357.45 438.65 364.07 442.44 364.07 431 354.18 419.56 364.07 423.35 364.07 431 357.45" style="fill:none;stroke:#263238;stroke-linecap:round;stroke-linejoin:round"></polygon><polygon points="431 365 438.65 371.61 442.44 371.61 431 361.73 419.56 371.61 423.35 371.61 431 365" style="fill:none;stroke:#263238;stroke-linecap:round;stroke-linejoin:round"></polygon><polygon points="101.78 247.62 106.61 251.79 109 251.79 101.78 245.55 94.56 251.79 96.95 251.79 101.78 247.62" style="fill:none;stroke:#263238;stroke-linecap:round;stroke-linejoin:round"></polygon><polygon points="101.78 252.38 106.61 256.55 109 256.55 101.78 250.31 94.56 256.55 96.95 256.55 101.78 252.38" style="fill:none;stroke:#263238;stroke-linecap:round;stroke-linejoin:round"></polygon><polygon points="69.17 367.83 74 372 76.39 372 69.17 365.76 61.95 372 64.34 372 69.17 367.83" style="fill:none;stroke:#263238;stroke-linecap:round;stroke-linejoin:round"></polygon><polygon points="69.17 372.59 74 376.76 76.39 376.76 69.17 370.52 61.95 376.76 64.34 376.76 69.17 372.59" style="fill:none;stroke:#263238;stroke-linecap:round;stroke-linejoin:round"></polygon></g></svg>